HIERARCHY
ROOT Hips
{
  OFFSET 5.80788e-005 67.184 3.4734
  CHANNELS 6 Xposition Yposition Zposition Zrotation Xrotation Yrotation
  JOINT Chest
  {
    OFFSET 0 8.7983 -4.7612
    CHANNELS 3 Zrotation Xrotation Yrotation
    JOINT Chest2
    {
      OFFSET 0 8.0291 0.4195
      CHANNELS 3 Zrotation Xrotation Yrotation
      JOINT Chest3
      {
        OFFSET 0 9.9351 -2.2114
        CHANNELS 3 Zrotation Xrotation Yrotation
        JOINT Neck
        {
          OFFSET 0 22.3885 -0.4656
          CHANNELS 3 Zrotation Xrotation Yrotation
          JOINT Head
          {
            OFFSET -0.0001 12.643 3.4389
            CHANNELS 3 Zrotation Xrotation Yrotation
            End Site
            {
              OFFSET 0.0001 17.6655 0.5274
            }
          }
        }
        JOINT LeftCollar
        {
          OFFSET 2.2603 21.606 7.4023
          CHANNELS 3 Zrotation Xrotation Yrotation
          JOINT LeftShoulder
          {
            OFFSET 13.5163 -1.1332 -5.0146
            CHANNELS 3 Zrotation Xrotation Yrotation
            JOINT LeftElbow
            {
              OFFSET -0.0995 -28.05 -0.2431
              CHANNELS 3 Zrotation Xrotation Yrotation
              JOINT LeftWrist
              {
                OFFSET 0.0679 -23.3996 -0.1402
                CHANNELS 3 Zrotation Xrotation Yrotation
                JOINT LeftFinger1
                {
                  OFFSET 0.7932 -9.069 2.5189
                  CHANNELS 3 Zrotation Xrotation Yrotation
                  JOINT LeftFinger11
                  {
                    OFFSET -0.8272 -3.3923 0.5977
                    CHANNELS 3 Zrotation Xrotation Yrotation
                    JOINT LeftFinger12
                    {
                      OFFSET -0.5649 -2.3158 0.4082
                      CHANNELS 3 Zrotation Xrotation Yrotation
                      End Site
                      {
                        OFFSET -0.4919 -1.6479 0.2673
                      }
                    }
                  }
                }
                JOINT LeftFinger2
                {
                  OFFSET 0.9159 -9.2044 0.2193
                  CHANNELS 3 Zrotation Xrotation Yrotation
                  JOINT LeftFinger21
                  {
                    OFFSET 0.0117 -4.1944 -0.0248
                    CHANNELS 3 Zrotation Xrotation Yrotation
                    JOINT LeftFinger22
                    {
                      OFFSET 0.0071 -2.3249 -0.0142
                      CHANNELS 3 Zrotation Xrotation Yrotation
                      End Site
                      {
                        OFFSET -0.1475 -2.0882 0.0028
                      }
                    }
                  }
                }
                JOINT LeftFinger3
                {
                  OFFSET 0.6113 -8.7231 -2.0637
                  CHANNELS 3 Zrotation Xrotation Yrotation
                  JOINT LeftFinger31
                  {
                    OFFSET -0.1927 -3.8059 -0.2383
                    CHANNELS 3 Zrotation Xrotation Yrotation
                    JOINT LeftFinger32
                    {
                      OFFSET -0.1091 -2.1688 -0.1362
                      CHANNELS 3 Zrotation Xrotation Yrotation
                      End Site
                      {
                        OFFSET -0.2358 -1.9176 -0.0906
                      }
                    }
                  }
                }
                JOINT LeftFinger4
                {
                  OFFSET -0.6151 -8.0947 -3.5641
                  CHANNELS 3 Zrotation Xrotation Yrotation
                  JOINT LeftFinger41
                  {
                    OFFSET -0.4882 -2.341 -0.6462
                    CHANNELS 3 Zrotation Xrotation Yrotation
                    JOINT LeftFinger42
                    {
                      OFFSET -0.3575 -1.7167 -0.4742
                      CHANNELS 3 Zrotation Xrotation Yrotation
                      End Site
                      {
                        OFFSET -0.4187 -1.5237 -0.3496
                      }
                    }
                  }
                }
                JOINT LeftFinger0
                {
                  OFFSET -1.42 -1.8761 1.4223
                  CHANNELS 3 Zrotation Xrotation Yrotation
                  JOINT LeftFinger01
                  {
                    OFFSET -1.1471 -3.4929 2.6334
                    CHANNELS 3 Zrotation Xrotation Yrotation
                    JOINT LeftFinger02
                    {
                      OFFSET -0.823 -2.3 1.6571
                      CHANNELS 3 Zrotation Xrotation Yrotation
                      End Site
                      {
                        OFFSET -0.5822 -1.6914 1.1582
                      }
                    }
                  }
                }
              }
            }
          }
        }
        JOINT RightCollar
        {
          OFFSET -2.2603 21.606 7.4023
          CHANNELS 3 Zrotation Xrotation Yrotation
          JOINT RightShoulder
          {
            OFFSET -13.5187 -1.1334 -5.0155
            CHANNELS 3 Zrotation Xrotation Yrotation
            JOINT RightElbow
            {
              OFFSET 0.0994 -28.0499 -0.2431
              CHANNELS 3 Zrotation Xrotation Yrotation
              JOINT RightWrist
              {
                OFFSET -0.0679 -23.3996 -0.1402
                CHANNELS 3 Zrotation Xrotation Yrotation
                JOINT RightFinger1
                {
                  OFFSET -0.7932 -9.0691 2.5189
                  CHANNELS 3 Zrotation Xrotation Yrotation
                  JOINT RightFinger11
                  {
                    OFFSET 0.8272 -3.3923 0.5977
                    CHANNELS 3 Zrotation Xrotation Yrotation
                    JOINT RightFinger12
                    {
                      OFFSET 0.565 -2.3158 0.4082
                      CHANNELS 3 Zrotation Xrotation Yrotation
                      End Site
                      {
                        OFFSET 0.4919 -1.6479 0.2673
                      }
                    }
                  }
                }
                JOINT RightFinger2
                {
                  OFFSET -0.916 -9.2044 0.2193
                  CHANNELS 3 Zrotation Xrotation Yrotation
                  JOINT RightFinger21
                  {
                    OFFSET -0.0117 -4.1944 -0.0248
                    CHANNELS 3 Zrotation Xrotation Yrotation
                    JOINT RightFinger22
                    {
                      OFFSET -0.0071 -2.3249 -0.0142
                      CHANNELS 3 Zrotation Xrotation Yrotation
                      End Site
                      {
                        OFFSET 0.1475 -2.0882 0.0028
                      }
                    }
                  }
                }
                JOINT RightFinger3
                {
                  OFFSET -0.6113 -8.7231 -2.0637
                  CHANNELS 3 Zrotation Xrotation Yrotation
                  JOINT RightFinger31
                  {
                    OFFSET 0.1927 -3.8059 -0.2383
                    CHANNELS 3 Zrotation Xrotation Yrotation
                    JOINT RightFinger32
                    {
                      OFFSET 0.1091 -2.1688 -0.1362
                      CHANNELS 3 Zrotation Xrotation Yrotation
                      End Site
                      {
                        OFFSET 0.2358 -1.9176 -0.0906
                      }
                    }
                  }
                }
                JOINT RightFinger4
                {
                  OFFSET 0.6151 -8.0947 -3.564
                  CHANNELS 3 Zrotation Xrotation Yrotation
                  JOINT RightFinger41
                  {
                    OFFSET 0.4882 -2.341 -0.6462
                    CHANNELS 3 Zrotation Xrotation Yrotation
                    JOINT RightFinger42
                    {
                      OFFSET 0.3574 -1.7166 -0.4742
                      CHANNELS 3 Zrotation Xrotation Yrotation
                      End Site
                      {
                        OFFSET 0.4187 -1.5237 -0.3496
                      }
                    }
                  }
                }
                JOINT RightFinger0
                {
                  OFFSET 1.4199 -1.8761 1.4221
                  CHANNELS 3 Zrotation Xrotation Yrotation
                  JOINT RightFinger01
                  {
                    OFFSET 1.1472 -3.4929 2.6336
                    CHANNELS 3 Zrotation Xrotation Yrotation
                    JOINT RightFinger02
                    {
                      OFFSET 0.8229 -2.3 1.6571
                      CHANNELS 3 Zrotation Xrotation Yrotation
                      End Site
                      {
                        OFFSET 0.5822 -1.6914 1.1582
                      }
                    }
                  }
                }
              }
            }
          }
        }
      }
    }
  }
  JOINT RightHip
  {
    OFFSET -9.412 3.9771 -0.7758
    CHANNELS 3 Zrotation Xrotation Yrotation
    JOINT RightKnee
    {
      OFFSET -0.7531 -40.938 0
      CHANNELS 3 Zrotation Xrotation Yrotation
      JOINT RightAnkle
      {
        OFFSET 0 -40.1986 0
        CHANNELS 3 Zrotation Xrotation Yrotation
        JOINT RightToe
        {
          OFFSET 0 -4.4182 9.239
          CHANNELS 3 Zrotation Xrotation Yrotation
          End Site
          {
            OFFSET 0 0 6.1981
          }
        }
      }
    }
  }
  JOINT LeftHip
  {
    OFFSET 9.4119 3.9773 -0.7758
    CHANNELS 3 Zrotation Xrotation Yrotation
    JOINT LeftKnee
    {
      OFFSET 0.7532 -40.9383 0
      CHANNELS 3 Zrotation Xrotation Yrotation
      JOINT LeftAnkle
      {
        OFFSET 0 -40.1986 0
        CHANNELS 3 Zrotation Xrotation Yrotation
        JOINT LeftToe
        {
          OFFSET 0 -4.4182 9.239
          CHANNELS 3 Zrotation Xrotation Yrotation
          End Site
          {
            OFFSET 0 0 6.1981
          }
        }
      }
    }
  }
}
MOTION
Frames:	6
Frame Time:	0.0333333
5.80788e-005 67.184 3.4734 0 0 -0 0 0 -0 0 0 -0 0 0 -0 0 0 -0 0 0 -0 0 0 -12.5014 88.1196 14.2451 10.6914 -0.00160068 -0.00239207 0.000740045 -8.4365e-005 7.00714e-005 -9.52055e-007 9.93923e-017 -1.98785e-016 -1.59028e-015 9.93923e-017 -5.96354e-016 -1.59028e-015 -9.93923e-017 -5.96354e-016 -1.59028e-015 9.93923e-017 -1.98785e-016 -1.59028e-015 -0.0128176 0.00232552 8.52707e-005 9.93923e-017 5.96354e-016 -0 9.93923e-017 -1.98785e-016 -1.59028e-015 -0.0160551 0.00299681 0.000857156 -2.48481e-016 0 3.18055e-015 9.93923e-017 -1.98785e-016 -1.59028e-015 -0.0125865 0.0031206 0.00282719 0 1.98785e-016 -0 9.93923e-017 -1.98785e-016 -1.59028e-015 9.93923e-017 -5.96354e-016 -1.59028e-015 -9.93923e-017 -5.96354e-016 -1.59028e-015 -0.865644 0.16582 7.03859 -88.0329 10.2057 -10.5567 0.0015593 -0.00248883 -0.000788628 7.87605e-005 4.10553e-005 1.24965e-005 -3.97569e-016 -7.95139e-016 3.18055e-015 -1.98785e-016 -3.97569e-016 3.18055e-015 -1.98785e-016 0 3.18055e-015 -3.97569e-016 -7.95139e-016 3.18055e-015 0.0129473 0.00231697 -8.70038e-005 9.93923e-017 -7.95139e-016 1.59028e-015 -3.97569e-016 -7.95139e-016 3.18055e-015 0.0163314 0.00303369 -0.000872333 3.97569e-016 7.95139e-016 -3.18055e-015 -3.97569e-016 -7.95139e-016 3.18055e-015 0.0145763 0.00367772 -0.00326275 9.93923e-017 -3.97569e-016 -0 -3.97569e-016 -7.95139e-016 3.18055e-015 -1.98785e-016 -3.97569e-016 3.18055e-015 -1.98785e-016 0 3.18055e-015 3.42485 1.36937 -0.0640303 0.000136572 0.69354 0.00145564 -3.42573 -2.06297 -0.0607933 -3.19502e-024 0 -1.48106e-024 -3.42498 1.36123 0.0639712 -6.769e-005 0.712612 -0.0012277 3.42582 -2.07388 0.0612819 2.55305e-023 0 -2.31416e-026 
1.18788 39.7753 -1.68351 6.55852e-009 11.1754 -2.26371e-007 -0.0451738 0.477837 -0.381367 -0.0871711 0.955983 -0.762402 -0.0871709 0.955976 -0.762402 0.0021739 -14.0745 0.00116215 -7.91816e-008 -0.218338 9.59455e-007 -4.81235 13.2025 -11.3833 55.8123 7.16075 18.2356 -47.9654 -13.7847 -21.9714 35.4117 -12.7819 -6.41047 -1.40722e-005 1.69911e-007 7.94677e-006 1.10736e-005 -2.877e-006 -8.93553e-006 -3.53113e-031 -3.18055e-015 -6.36111e-015 -1.40722e-005 1.69911e-007 7.94677e-006 -0.0127704 0.00231595 7.94936e-005 -1.59028e-015 0 3.18055e-015 -1.40722e-005 1.69911e-007 7.94677e-006 -0.0161092 0.00301184 0.000860331 5.31504e-006 1.81179e-006 -2.89261e-007 -1.40722e-005 1.69911e-007 7.94677e-006 -0.0125559 0.00312069 0.00281531 -0 0 6.36111e-015 -1.40722e-005 1.69911e-007 7.94677e-006 1.10736e-005 -2.877e-006 -8.93553e-006 -3.53113e-031 -3.18055e-015 -6.36111e-015 15.9561 -3.63454 26.3405 -58.6869 1.86957 -15.9666 33.7327 -13.5664 16.6946 -32.9893 10.169 8.64788 -5.40741e-007 -2.04019e-007 -4.00316e-007 5.40741e-007 -2.69645e-006 4.00316e-007 -5.45567e-006 2.85685e-006 -1.05641e-006 -5.40741e-007 -2.04019e-007 -4.00316e-007 0.0129306 0.00231513 -8.64685e-005 -3.30717e-006 4.45108e-006 -1.48732e-006 -5.40741e-007 -2.04019e-007 -4.00316e-007 0.0163369 0.00303973 -0.000877999 -1.01315e-005 6.67624e-007 1.63881e-006 -5.40741e-007 -2.04019e-007 -4.00316e-007 0.0145749 0.00367609 -0.00326469 -7.95139e-016 -3.18055e-015 -4.77083e-015 -5.40741e-007 -2.04019e-007 -4.00316e-007 5.40741e-007 -2.69645e-006 4.00316e-007 -5.45567e-006 2.85685e-006 -1.05641e-006 -4.24624 -16.9372 -12.163 -6.64449 78.6246 5.19597 8.58419 35.1428 -17.6335 -2.04012e-006 3.0667e-007 9.08122e-007 4.20431 -16.881 12.0503 6.27798 78.5275 -4.77869 -8.40146 34.4902 17.447 7.75072e-007 -6.67964e-008 3.05544e-007 
1.83105 27.59 -3.78983 -7.05609e-008 15.8793 3.39636e-007 -0.113639 0.924334 -0.531965 -0.21873 1.84966 -1.0623 -0.21873 1.84968 -1.0623 -0.00777382 -20.4234 -0.00350872 1.50406e-007 -0.434743 -4.92949e-007 -6.96929 18.693 -10.9861 41.9005 2.90154 21.0029 -68.4293 -21.2192 -29.8616 52.0541 -17.9817 -7.84385 6.06392e-006 1.31228e-006 1.68588e-006 -4.77083e-015 0 1.59028e-015 -3.18055e-015 0 1.59028e-015 6.06392e-006 1.31228e-006 1.68588e-006 -0.0128084 0.00232594 8.48541e-005 -1.59028e-015 6.36111e-015 -3.18055e-015 6.06392e-006 1.31228e-006 1.68588e-006 -0.0160381 0.00300012 0.000856899 3.18055e-015 0 1.59028e-015 6.06392e-006 1.31228e-006 1.68588e-006 -0.0125588 0.00312034 0.00282134 6.36111e-015 -3.18055e-015 3.18055e-015 6.06392e-006 1.31228e-006 1.68588e-006 -4.77083e-015 0 1.59028e-015 -3.18055e-015 0 1.59028e-015 24.2129 -5.25277 34.045 -45.2868 -3.88035 -18.2055 49.0579 -19.4801 23.8848 -47.2038 15.6827 12.1684 1.18486e-005 -4.23393e-006 -5.98772e-007 -7.35581e-007 -1.90438e-006 -1.44164e-006 -1.59028e-015 0 3.18055e-015 1.18486e-005 -4.23393e-006 -5.98772e-007 0.0129206 0.00231459 -9.10914e-005 -7.354e-007 -1.81941e-006 -1.44167e-006 1.18486e-005 -4.23393e-006 -5.98772e-007 0.0163292 0.00303235 -0.000870486 1.04921e-005 2.37913e-006 -4.67698e-006 1.18486e-005 -4.23393e-006 -5.98772e-007 0.0145954 0.00367805 -0.00326638 -5.29669e-031 -3.18055e-015 -9.54166e-015 1.18486e-005 -4.23393e-006 -5.98772e-007 -7.35581e-007 -1.90438e-006 -1.44164e-006 -1.59028e-015 0 3.18055e-015 -9.51026 -23.8906 -19.4275 -174.108 68.6233 170.942 27.4499 49.9048 -34.8065 2.53286e-007 5.49477e-009 8.07834e-007 9.19335 -23.7873 19.2978 174.406 68.7731 -171.203 -26.7505 48.9117 34.3022 -1.22648e-006 5.6704e-006 1.78601e-006 
1.93011 30.3419 -2.8708 -3.72765e-008 14.1113 8.3516e-007 -0.107892 1.33861 -0.488259 -0.20445 2.67809 -0.9744 -0.20445 2.6781 -0.9744 -0.0294365 -19.0479 -0.0130376 -2.43823e-007 -0.649236 5.98791e-007 -6.08688 16.4778 -11.4147 45.1796 3.90657 20.4509 -63.9813 -19.4685 -28.207 48.4778 -17.4337 -6.80991 1.59028e-015 -3.18055e-015 -0 1.59028e-015 -6.36111e-015 -6.36111e-015 1.59028e-015 -6.36111e-015 -3.18055e-015 1.59028e-015 -3.18055e-015 -0 -0.0128114 0.0023229 8.27081e-005 -1.59028e-015 -6.36111e-015 -3.18055e-015 1.59028e-015 -3.18055e-015 -0 -0.0160939 0.00299984 0.000857766 -3.18055e-015 1.27222e-014 6.36111e-015 1.59028e-015 -3.18055e-015 -0 -0.0125795 0.00312145 0.00282106 -1.9885e-005 8.68151e-006 4.47594e-006 1.59028e-015 -3.18055e-015 -0 1.59028e-015 -6.36111e-015 -6.36111e-015 1.59028e-015 -6.36111e-015 -3.18055e-015 22.098 -5.4481 30.0126 -47.1416 -5.86392 -17.9069 46.6649 -17.0691 23.9262 -44.1337 14.8634 11.9488 -1.59028e-015 6.36111e-015 -6.36111e-015 4.55203e-006 6.81204e-006 -1.3814e-005 -9.54166e-015 6.36111e-015 -9.54166e-015 -1.59028e-015 6.36111e-015 -6.36111e-015 0.0129167 0.00231506 -9.70992e-005 -8.38011e-023 -1.50963e-006 -3.18055e-015 -1.59028e-015 6.36111e-015 -6.36111e-015 0.0163211 0.00303531 -0.000880655 1.16269e-006 8.0086e-006 -5.77818e-006 -1.59028e-015 6.36111e-015 -6.36111e-015 0.0146209 0.00368277 -0.00326958 4.88341e-006 1.06396e-006 -3.2745e-006 -1.59028e-015 6.36111e-015 -6.36111e-015 4.55203e-006 6.81204e-006 -1.3814e-005 -9.54166e-015 6.36111e-015 -9.54166e-015 -8.33767 -21.0916 -17.2841 -171.65 76.2936 169.012 21.8625 47.1801 -29.536 -4.93207e-006 -3.68886e-007 1.29891e-006 7.58738 -20.9851 17.27 172.03 76.487 -169.359 -21.6481 45.9752 29.8147 1.32394e-005 5.54379e-006 -1.69059e-006 
2.1281 30.3842 -2.50014 3.55856e-010 13.5196 -1.5222e-009 -0.117245 1.76321 -0.478472 -0.219902 3.52732 -0.954009 -0.219902 3.52733 -0.95401 -0.04906 -19.0768 -0.0217219 -1.48258e-007 -0.864178 -1.85526e-007 -5.76795 15.6604 -11.6844 45.3563 3.91274 20.4662 -63.9814 -19.4674 -28.2046 48.6216 -17.8806 -6.17724 4.69556e-006 6.5774e-006 -1.07205e-006 -2.9319e-006 2.69575e-007 -2.42907e-006 -3.90364e-006 7.5817e-006 6.74671e-006 4.69556e-006 6.5774e-006 -1.07205e-006 -0.0128181 0.00232398 8.73936e-005 5.71766e-006 -2.14823e-007 -6.93346e-006 4.69556e-006 6.5774e-006 -1.07205e-006 -0.0160448 0.0029882 0.000856297 2.87999e-006 6.52589e-006 -8.84925e-007 4.69556e-006 6.5774e-006 -1.07205e-006 -0.0126246 0.00313499 0.00283409 -7.55695e-007 5.62147e-006 4.12847e-007 4.69556e-006 6.5774e-006 -1.07205e-006 -2.9319e-006 2.69575e-007 -2.42907e-006 -3.90364e-006 7.5817e-006 6.74671e-006 21.8839 -5.87676 28.0979 -46.236 -8.56853 -18.0032 47.4359 -16.1761 25.1977 -44.1725 15.2342 12.3892 2.96351e-006 9.17394e-007 -8.20658e-007 2.90668e-006 -4.13202e-006 3.22079e-006 4.77083e-015 1.52568e-006 -3.18055e-015 2.96351e-006 9.17394e-007 -8.20658e-007 0.0129577 0.00232585 -8.73183e-005 6.36111e-015 0 3.18055e-015 2.96351e-006 9.17394e-007 -8.20658e-007 0.0163385 0.00304263 -0.000869884 2.96398e-006 1.9334e-006 -8.20523e-007 2.96351e-006 9.17394e-007 -8.20658e-007 0.0146063 0.00368652 -0.00326162 7.95139e-015 -3.18055e-015 -0 2.96351e-006 9.17394e-007 -8.20658e-007 2.90668e-006 -4.13202e-006 3.22079e-006 4.77083e-015 1.52568e-006 -3.18055e-015 -8.42722 -20.065 -17.0195 -171.511 76.7631 168.896 21.7611 47.3381 -29.235 7.95139e-016 0 -1.59028e-015 7.27097 -19.9421 17.1057 171.895 76.9961 -169.257 -21.7961 45.903 30.04 -2.38542e-015 0 -1.59028e-015 
2.32608 30.4274 -2.12964 -3.64218e-008 12.9275 -2.61509e-007 -0.126721 2.19116 -0.468431 -0.235755 4.38328 -0.933032 -0.235755 4.38329 -0.933033 -0.0686869 -19.1057 -0.0304104 1.20051e-007 -1.0792 -5.10704e-007 -5.45382 14.8405 -11.9486 45.5303 3.92266 20.4817 -63.9814 -19.4682 -28.2064 48.7711 -18.3263 -5.54123 -2.87932e-006 -1.43507e-006 8.831e-007 7.24878e-006 1.39489e-006 1.10731e-006 7.45066e-007 1.80638e-006 1.43676e-006 -2.87932e-006 -1.43507e-006 8.831e-007 -0.0128086 0.00231654 8.83181e-005 -2.17707e-006 9.56243e-006 6.00407e-006 -2.87932e-006 -1.43507e-006 8.831e-007 -0.0160462 0.00299884 0.000858201 2.16448e-006 8.09943e-006 2.83726e-006 -2.87932e-006 -1.43507e-006 8.831e-007 -0.0126152 0.00312915 0.00283166 1.07273e-006 2.04673e-006 -1.62027e-006 -2.87932e-006 -1.43507e-006 8.831e-007 7.24878e-006 1.39489e-006 1.10731e-006 7.45066e-007 1.80638e-006 1.43676e-006 21.6537 -6.30098 26.1674 -45.3236 -11.2796 -18.0563 48.184 -15.266 26.4546 -44.2143 15.6048 12.831 -6.96712e-007 -1.87762e-006 -1.4217e-006 1.31292e-006 3.59849e-006 2.7124e-006 -1.39342e-006 -2.05041e-006 -2.84339e-006 -6.96712e-007 -1.87762e-006 -1.4217e-006 0.0129665 0.00232057 -8.33261e-005 1.41627e-006 -6.01798e-006 -5.42917e-007 -6.96712e-007 -1.87762e-006 -1.4217e-006 0.0163379 0.0030394 -0.000871518 9.02379e-007 -5.48702e-007 -5.08904e-006 -6.96712e-007 -1.87762e-006 -1.4217e-006 0.0145724 0.00367426 -0.00325528 4.77083e-015 -3.18055e-015 3.18055e-015 -6.96712e-007 -1.87762e-006 -1.4217e-006 1.31292e-006 3.59849e-006 2.7124e-006 -1.39342e-006 -2.05041e-006 -2.84339e-006 -8.5205 -19.0369 -16.7543 -171.363 77.2326 168.77 21.6583 47.4958 -28.9328 7.15625e-015 -6.36111e-015 3.18055e-015 6.95829 -18.8972 16.9485 171.752 77.5044 -169.146 -21.9434 45.8303 30.2647 1.59028e-015 1.96072e-008 1.59028e-015 
